<svg xmlns="http://www.w3.org/2000/svg" version="1.1" xmlns:xlink="http://www.w3.org/1999/xlink"
    xmlns:svgjs="http://svgjs.dev/svgjs" width="1500" height="1500" viewBox="0 0 1500 1500">
    <rect width="1500" height="1500" fill="#ffffff"></rect>
    <g
        transform="matrix(0.6666666666666666,0,0,0.6666666666666666,249.05940371597296,284.37732793522264)">
        <svg viewBox="0 0 265 247" data-background-color="#ffffff"
            preserveAspectRatio="xMidYMid meet" height="1398" width="1500"
            xmlns="http://www.w3.org/2000/svg" xmlns:xlink="http://www.w3.org/1999/xlink">
            <g id="tight-bounds" transform="matrix(1,0,0,1,0.2492580152671735,-0.09999999999999432)">
                <svg viewBox="0 0 264.50148396946565 247.2" height="247.2"
                    width="264.50148396946565">
                    <g>
                        <svg viewBox="0 0 264.50148396946565 247.2" height="247.2"
                            width="264.50148396946565">
                            <g>
                                <svg viewBox="0 0 264.50148396946565 247.2" height="247.2"
                                    width="264.50148396946565">
                                    <g id="textblocktransform">
                                        <svg viewBox="0 0 264.50148396946565 247.2" height="247.2"
                                            width="264.50148396946565" id="textblock">
                                            <g>
                                                <svg viewBox="0 0 264.50148396946565 247.2"
                                                    height="247.2" width="264.50148396946565">
                                                    <rect width="264.50148396946565" height="247.2"
                                                        x="0" y="0" opacity="1" fill="#000000"
                                                        data-fill-palette-color="tertiary"></rect>
                                                    <g
                                                        transform="matrix(1,0,0,1,23.607599999999998,23.607599999999998)">
                                                        <svg width="217.28628396946564"
                                                            viewBox="2.5 -39.3 42.7 39.3"
                                                            height="199.9848"
                                                            data-palette-color="#ffffff">
                                                            <path
                                                                d="M45.2-2L44.2 0 29 0 29-1.55 33.7-5.25 33.7-18.45 13.95-18.45 13.95-3.8 19.2-2 18.2 0 3 0 3-1.55 7.7-5.25 7.7-35.55 2.5-37.3 3.5-39.3 18.7-39.3 18.7-37.75 13.95-34.05 13.95-20.7 33.7-20.7 33.7-35.55 28.5-37.3 29.5-39.3 44.7-39.3 44.7-37.75 39.95-34.05 39.95-3.8 45.2-2Z"
                                                                opacity="1"
                                                                transform="matrix(1,0,0,1,0,0)"
                                                                fill="#ffffff"
                                                                class="wordmark-text-0"
                                                                data-fill-palette-color="quaternary"
                                                                id="text-0"></path>
                                                        </svg>
                                                    </g>
                                                </svg>
                                            </g>
                                        </svg>
                                    </g>
                                </svg>
                            </g>
                        </svg>
                    </g>
                    <defs></defs>
                </svg>
                <rect width="264.50148396946565" height="247.2" fill="none" stroke="none"
                    visibility="hidden"></rect>
            </g>
        </svg>
    </g>
</svg>